<svg width="25" height="24" viewBox="0 0 25 24" fill="none" xmlns="http://www.w3.org/2000/svg">
<path d="M16.3797 12C16.3797 13.98 14.7797 15.58 12.7997 15.58C10.8197 15.58 9.21973 13.98 9.21973 12C9.21973 10.02 10.8197 8.42 12.7997 8.42C14.7797 8.42 16.3797 10.02 16.3797 12Z" stroke="#A7AEC1" stroke-width="1.5" stroke-linecap="round" stroke-linejoin="round"/>
<path d="M12.7996 20.27C16.3296 20.27 19.6196 18.19 21.9096 14.59C22.8096 13.18 22.8096 10.81 21.9096 9.4C19.6196 5.8 16.3296 3.72 12.7996 3.72C9.26965 3.72 5.97965 5.8 3.68965 9.4C2.78965 10.81 2.78965 13.18 3.68965 14.59C5.97965 18.19 9.26965 20.27 12.7996 20.27Z" stroke="#A7AEC1" stroke-width="1.5" stroke-linecap="round" stroke-linejoin="round"/>
</svg>
